<svg width="210mm" height="297mm" viewBox="0 0 210 297" xmlns="http://www.w3.org/2000/svg">
   <path fill="#ff0" d="m122.767 196.672-65.795-71.654-96.327 13.579L8.461 53.879-34.22-33.537l95.347 19.296 69.949-67.605 11.112 96.643 85.911 45.634-88.479 40.433Z" transform="matrix(.26458 0 0 .26458 13.906 24.224)"/>
   <path fill="#f00" d="m577.949 339.994-112.497 13.941L413.16 454.51l-48.022-102.682-111.812-18.653 82.818-77.403-16.812-112.103 99.206 54.845 101.422-50.63-21.505 111.298z" transform="matrix(.26458 0 0 .26458 11.708 23.999)"/>
   <path fill="#0ff" d="m363.997 608.841-45.741-53.275-69.819 7.479 36.533-59.966-28.688-64.09 68.32 16.213 52.09-47.088 5.69 69.987 60.88 34.988-64.802 27.04z" transform="matrix(.26458 0 0 .26458 44.686 34.576)"/>
   <path fill="#ff0" d="M710.033 909.497 596.8 859.567 491.476 924.54l12.495-123.12-94.34-80.092 120.956-26.162 47.019-114.473 62.26 106.951 123.399 9.344-82.477 92.262z" transform="matrix(.26458 0 0 .26458 4.37 44.028)"/>
   <path fill="#f0f" d="m102.05 963.686-60.87-14.164-46.177 42.114-5.34-62.268-54.322-30.903 57.57-24.32L5.516 812.93l40.92 47.238 62.113-6.93-32.281 53.516Z" transform="matrix(.26458 0 0 .26458 25.106 8.023)"/>
   <path fill="#0ff" d="m185.49 536.169-85.297-40.87-82.024 47.095 12.512-93.752-70.138-63.456 93.03-17.072L92.25 281.8l44.984 83.202 94.04 10.111-65.227 68.493z" transform="matrix(.26458 0 0 .26458 12.36 18.934)"/>
   <path fill="#0f0" d="m675.077-40.2 29.86 75.207 78.883 18.039-62.3 51.639 7.22 80.596-68.363-43.293-74.42 31.772 20.05-78.395-53.216-60.96 80.755-5.158z" transform="matrix(.26458 0 0 .26458 -21.539 12.467)"/>
   <path fill="#ff0" d="m698.684 503.39-55.61-32.42-58.233 27.432 13.649-62.907-44.083-46.906 64.045-6.459 30.988-56.42 25.933 58.915 63.235 12.036-48.017 42.87z" transform="matrix(.26458 0 0 .26458 13.755 29.766)"/>
   <path fill="#f0f" d="m219.997 795.476-57.18-32.045-58.815 28.937 12.807-64.284-45.696-46.994 65.096-7.685 30.572-57.981 27.425 59.535 64.591 11.159-48.146 44.48z" transform="matrix(.26458 0 0 .26458 18.529 6.465)"/>
   <path fill="#0ff" d="m378.09 1092.894-40.949-16.808-37.06 24.204 3.331-44.139-34.471-27.767 43.007-10.471 15.756-41.365 23.249 37.667 44.209 2.202-28.64 33.75z" transform="scale(.26458)"/>
</svg>
